HIERARCHY
ROOT Hips
{
	OFFSET 0.000000 0.000000 0.000000
	CHANNELS 6 Xposition Yposition Zposition Zrotation Yrotation Xrotation 
	JOINT LHipJoint
	{
		OFFSET 0.000000 0.000000 0.000000
		CHANNELS 3 Zrotation Yrotation Xrotation
		JOINT LeftUpLeg
		{
			OFFSET 1.363060 -1.794630 0.839290
			CHANNELS 3 Zrotation Yrotation Xrotation
			JOINT LeftLeg
			{
				OFFSET 2.448110 -6.726130 0.000000
				CHANNELS 3 Zrotation Yrotation Xrotation
				JOINT LeftFoot
				{
					OFFSET 2.562200 -7.039590 0.000000
					CHANNELS 3 Zrotation Yrotation Xrotation
					JOINT LeftToeBase
					{
						OFFSET 0.157640 -0.433110 2.322550
						CHANNELS 3 Zrotation Yrotation Xrotation
						End Site
						{
							OFFSET 0.000000 0.000000 0.000000
						}
					}
				}
			}
		}
	}
	JOINT RHipJoint
	{
		OFFSET 0.000000 0.000000 0.000000
		CHANNELS 3 Zrotation Yrotation Xrotation
		JOINT RightUpLeg
		{
			OFFSET -1.305520 -1.794630 0.839290
			CHANNELS 3 Zrotation Yrotation Xrotation
			JOINT RightLeg
			{
				OFFSET -2.542530 -6.985550 0.000000
				CHANNELS 3 Zrotation Yrotation Xrotation
				JOINT RightFoot
				{
					OFFSET -2.568260 -7.056230 0.000000
					CHANNELS 3 Zrotation Yrotation Xrotation
					JOINT RightToeBase
					{
						OFFSET -0.164730 -0.452590 2.363150
						CHANNELS 3 Zrotation Yrotation Xrotation
						End Site
						{
							OFFSET 0.000000 0.000000 0.000000
						}
					}
				}
			}
		}
	}
	JOINT LowerBack
	{
		OFFSET 0.000000 0.000000 0.000000
		CHANNELS 3 Zrotation Yrotation Xrotation
		JOINT Spine
		{
			OFFSET 0.028270 2.035590 -0.193380
			CHANNELS 3 Zrotation Yrotation Xrotation
			JOINT Spine1
			{
				OFFSET 0.056720 2.048850 -0.042750
				CHANNELS 3 Zrotation Yrotation Xrotation
				JOINT Neck
				{
					OFFSET 0.000000 0.000000 0.000000
					CHANNELS 3 Zrotation Yrotation Xrotation
					JOINT Neck1
					{
						OFFSET -0.054170 1.746240 0.172020
						CHANNELS 3 Zrotation Yrotation Xrotation
						JOINT Head
						{
							OFFSET 0.104070 1.761360 -0.123970
							CHANNELS 3 Zrotation Yrotation Xrotation
							End Site
							{
								OFFSET 0.000000 0.000000 0.000000
							}
						}
					}
				}
				JOINT LeftShoulder
				{
					OFFSET 0.000000 0.000000 0.000000
					CHANNELS 3 Zrotation Yrotation Xrotation
					JOINT LeftArm
					{
						OFFSET 3.362410 1.200890 -0.311210
						CHANNELS 3 Zrotation Yrotation Xrotation
						JOINT LeftForeArm
						{
							OFFSET 4.983000 -0.000000 -0.000000
							CHANNELS 3 Zrotation Yrotation Xrotation
							JOINT LeftHand
							{
								OFFSET 3.483560 -0.000000 -0.000000
								CHANNELS 3 Zrotation Yrotation Xrotation
								JOINT LeftFingerBase
								{
									OFFSET 0.000000 0.000000 0.000000
									CHANNELS 3 Zrotation Yrotation Xrotation
									JOINT LeftHandIndex1
									{
										OFFSET 0.715260 -0.000000 -0.000000
										CHANNELS 3 Zrotation Yrotation Xrotation
										End Site
										{
											OFFSET 0.000000 0.000000 0.000000
										}
									}
								}
								JOINT LThumb
								{
									OFFSET 0.000000 0.000000 0.000000
									CHANNELS 3 Zrotation Yrotation Xrotation
									End Site
									{
										OFFSET 0.000000 0.000000 0.000000
									}
								}
							}
						}
					}
				}
				JOINT RightShoulder
				{
					OFFSET 0.000000 0.000000 0.000000
					CHANNELS 3 Zrotation Yrotation Xrotation
					JOINT RightArm
					{
						OFFSET -3.136600 1.374050 -0.404650
						CHANNELS 3 Zrotation Yrotation Xrotation
						JOINT RightForeArm
						{
							OFFSET -5.241900 -0.000000 -0.000000
							CHANNELS 3 Zrotation Yrotation Xrotation
							JOINT RightHand
							{
								OFFSET -3.444170 -0.000000 -0.000000
								CHANNELS 3 Zrotation Yrotation Xrotation
								JOINT RightFingerBase
								{
									OFFSET 0.000000 0.000000 0.000000
									CHANNELS 3 Zrotation Yrotation Xrotation
									JOINT RightHandIndex1
									{
										OFFSET -0.622530 -0.000000 -0.000000
										CHANNELS 3 Zrotation Yrotation Xrotation
										End Site
										{
											OFFSET 0.000000 0.000000 0.000000
										}
									}
								}
								JOINT RThumb
								{
									OFFSET 0.000000 0.000000 0.000000
									CHANNELS 3 Zrotation Yrotation Xrotation
									End Site
									{
										OFFSET 0.000000 0.000000 0.000000
									}
								}
							}
						}
					}
				}
			}
		}
	}
}
MOTION
Frames: 12
Frame Time: 0.008333
-1.730194 17.493993 1.365070 100.177737 -87.001877 -69.344043 -7.902174 1.765559 6.582093 -9.541825 -12.070215 -48.617510 -1.623363 0.322327 30.796138 2.499086 10.350480 -9.806939 0.163100 0.000000 -23.676200 11.430134 -4.298398 3.528529 10.007253 -0.281022 -10.228146 1.588353 -0.101342 5.817975 0.210589 1.590343 21.940832 0.370800 0.000000 -60.754300 -4.048679 -0.576119 -10.864338 -1.813409 -0.530548 -5.221470 -5.065157 -0.590732 -0.760270 3.156670 -3.905053 -7.734063 -2.405084 -0.175094 -0.114200 0.000000 0.000000 0.000000 8.767389 8.837675 0.685315 10.082727 -30.871003 -33.452520 179.531208 -81.746222 179.765427 19.247885 -13.622216 -2.550545 -0.395760 1.033321 -0.000000 0.000000 0.000000 0.000000 0.000000 0.000000 0.000000 4.526203 1.384816 2.864507 26.446461 30.927840 -14.132581 -0.080365 53.777872 -0.167968 -24.471600 9.013340 -2.099211 0.305407 -0.533809 0.000000 0.000000 0.000000 0.000000 0.000000 0.000000 0.000000 
-2.021693 17.502771 1.326462 108.405423 -86.809480 -77.242144 -7.695421 1.684127 6.856373 -9.689488 -12.395027 -49.528898 -1.981108 -0.017405 27.227328 2.376267 9.385093 -9.981831 0.157800 0.000000 -26.041700 11.533680 -4.437383 3.469379 9.609971 -0.452902 -9.505889 1.520367 -0.160560 4.984868 0.167523 2.106475 24.448237 0.766000 -0.000000 -61.113100 -4.648685 -0.595018 -11.047778 -1.878848 -0.494615 -5.244105 -4.767876 -0.573173 -0.620069 3.344716 -3.951203 -8.019335 -2.250227 -0.159269 -0.198152 0.000000 0.000000 0.000000 8.305788 9.082199 0.988792 10.248346 -29.605387 -35.122705 179.627245 -84.577256 179.770398 19.404323 -13.417872 -2.530577 -0.399075 1.006831 -0.000000 0.000000 0.000000 0.000000 0.000000 0.000000 0.000000 4.260067 1.528872 3.041962 24.286509 32.055112 -10.118209 0.105666 54.091467 -0.141699 -21.576761 10.276121 -2.093209 0.286830 -0.540621 0.000000 0.000000 0.000000 0.000000 0.000000 0.000000 0.000000 
-2.306822 17.506864 1.279311 124.852421 -86.105283 -93.638103 -7.596046 1.504632 6.819101 -10.454476 -11.735631 -49.750119 -2.441308 -0.410076 23.392758 2.219266 8.399431 -10.116167 0.138300 0.000000 -28.495100 11.573896 -4.594486 3.455951 8.763355 -0.069459 -8.544502 1.391444 -0.263054 4.468697 0.090948 2.733383 26.582162 1.264300 -0.000000 -61.489300 -5.628444 -0.477997 -10.988994 -2.036438 -0.291612 -5.225045 -4.469549 -0.394187 -0.511039 3.634052 -3.984312 -8.306297 -2.094069 -0.143039 -0.288263 0.000000 0.000000 0.000000 7.939188 9.417522 1.280711 10.463049 -28.428150 -36.956421 179.705469 -87.758888 179.776488 19.502820 -13.265280 -2.511759 -0.401642 0.980564 -0.000000 0.000000 0.000000 0.000000 0.000000 0.000000 0.000000 4.112335 1.733541 3.257114 22.039006 33.283878 -6.315390 0.267086 54.698970 -0.117362 -18.826093 11.557766 -2.041304 0.264122 -0.547895 -0.000000 0.000000 0.000000 0.000000 0.000000 0.000000 0.000000 
-2.598243 17.494346 1.245233 130.292291 -85.839590 -98.967269 -7.486560 1.415263 7.014577 -10.618595 -11.697751 -50.269833 -2.804309 -0.793594 19.828166 2.055181 7.468790 -9.996938 0.170400 0.000000 -30.950301 11.600702 -4.715708 3.326775 8.517830 -0.404642 -7.627632 1.355796 -0.310502 3.865345 0.040070 3.301095 28.559848 1.726700 0.000000 -61.582700 -6.106619 -0.480690 -11.025703 -2.060291 -0.250571 -5.213612 -4.132881 -0.372471 -0.368897 3.759243 -4.023614 -8.573957 -1.916097 -0.125133 -0.368623 0.000000 0.000000 0.000000 7.483173 9.689571 1.562809 10.533281 -27.442851 -38.845105 -0.240127 -88.731485 -0.218833 19.573405 -13.130660 -2.492921 -0.401686 0.959020 0.000000 0.000000 0.000000 0.000000 0.000000 0.000000 0.000000 3.681866 1.803194 3.429197 19.776906 34.450750 -2.601603 0.382293 55.612276 -0.094961 -16.337512 12.816874 -1.955258 0.241742 -0.552702 -0.000000 0.000000 0.000000 0.000000 0.000000 0.000000 0.000000 
-2.889604 17.470147 1.213752 135.362154 -85.578548 -104.055729 -7.435066 1.307353 7.140494 -10.823868 -11.462189 -50.635132 -3.138641 -1.159331 16.562882 1.865665 6.540401 -9.721588 0.214100 -0.000001 -33.133600 11.591335 -4.839829 3.174434 8.326734 -0.804917 -6.594938 1.335616 -0.358176 3.382125 -0.006996 3.926926 30.281069 2.232400 -0.000000 -61.551300 -6.520682 -0.474757 -10.975002 -2.063597 -0.205954 -5.182819 -3.781543 -0.346711 -0.233040 3.847863 -4.091372 -8.823986 -1.727105 -0.106386 -0.444091 0.000000 0.000000 0.000000 7.050210 9.946803 1.824258 10.552414 -26.586889 -40.847475 -0.204978 -84.874613 -0.214909 19.639979 -12.999145 -2.474294 -0.401521 0.939865 0.000000 0.000000 0.000000 0.000000 0.000000 0.000000 0.000000 3.172489 1.806796 3.585624 17.473021 35.671773 0.927193 0.452732 56.761035 -0.076401 -14.211149 14.003534 -1.852048 0.219763 -0.556665 -0.000000 0.000000 0.000000 0.000000 0.000000 0.000000 0.000000 
-3.180907 17.433907 1.184500 140.149734 -85.304252 -108.986208 -7.438520 1.189206 7.193034 -11.084425 -11.062401 -50.918099 -3.429186 -1.468458 13.822858 1.657704 5.619516 -9.318740 0.262000 0.000000 -34.989800 11.550870 -4.966465 3.008979 8.158109 -1.254322 -5.465392 1.326268 -0.407839 3.034519 -0.046572 4.635586 31.761474 2.794000 0.000000 -61.387600 -6.886640 -0.460183 -10.848688 -2.051055 -0.156549 -5.135606 -3.420628 -0.315333 -0.106276 3.906775 -4.207124 -9.050697 -1.529259 -0.087086 -0.512562 0.000000 0.000000 0.000000 6.658570 10.169142 2.058698 10.526671 -25.845073 -42.963050 -0.185098 -80.671834 -0.212091 19.738150 -12.846039 -2.456084 -0.402331 0.923149 0.000000 0.000000 0.000000 0.000000 0.000000 0.000000 0.000000 2.606464 1.728287 3.720723 15.116905 36.975062 4.249994 0.478668 58.093061 -0.062101 -12.485540 15.073554 -1.747471 0.199270 -0.559889 0.000000 0.000000 0.000000 0.000000 0.000000 0.000000 0.000000 
-3.472225 17.385546 1.156734 144.564829 -85.001391 -113.646225 -7.481643 1.077214 7.185410 -11.386224 -10.579129 -51.199731 -3.664402 -1.687977 11.796053 1.448234 4.743918 -8.841219 0.306200 0.000000 -36.489900 11.493096 -5.091577 2.840268 7.974023 -1.737373 -4.281682 1.320592 -0.460805 2.843723 -0.077425 5.445297 33.021471 3.422700 -0.000000 -61.083800 -7.225598 -0.441500 -10.673151 -2.028813 -0.104994 -5.077830 -3.056199 -0.280616 0.010026 3.948473 -4.383383 -9.248343 -1.325875 -0.067635 -0.571902 0.000000 0.000000 0.000000 6.326107 10.337472 2.261352 10.468339 -25.197760 -45.188487 -0.173029 -76.130997 -0.210997 19.904608 -12.643342 -2.437788 -0.405421 0.908923 0.000000 0.000000 0.000000 0.000000 0.000000 0.000000 0.000000 2.015775 1.557525 3.831593 12.694998 38.383721 7.336850 0.464749 59.559117 -0.051815 -11.137360 15.996459 -1.651423 0.180576 -0.562383 -0.000000 0.000000 0.000000 0.000000 0.000000 0.000000 0.000000 
-3.763875 17.325319 1.129620 148.428180 -84.666703 -117.819935 -7.542613 0.987949 7.142976 -11.683969 -10.123184 -51.549459 -3.834284 -1.797461 10.606011 1.260313 3.983500 -8.349708 0.343000 0.000000 -37.683000 11.437439 -5.210300 2.677549 7.740664 -2.236931 -3.101061 1.310275 -0.518046 2.832892 -0.101159 6.359267 34.084509 4.121400 0.000000 -60.635400 -7.556747 -0.427396 -10.483318 -2.002465 -0.057957 -5.016934 -2.694141 -0.248969 0.115678 3.987063 -4.622923 -9.411450 -1.120740 -0.048484 -0.620096 0.000000 0.000000 0.000000 6.067287 10.435536 2.429722 10.392467 -24.624881 -47.518081 -0.158668 -71.269293 -0.211986 20.171411 -12.361314 -2.417202 -0.412144 0.897164 0.000000 0.000000 0.000000 0.000000 0.000000 0.000000 0.000000 1.433425 1.292707 3.917480 10.197465 39.909178 10.146210 0.418808 61.112971 -0.044877 -10.089968 16.756120 -1.565096 0.163202 -0.564053 -0.000000 0.000000 0.000000 0.000000 0.000000 0.000000 0.000000 
-4.055782 17.253918 1.102405 151.586538 -84.310486 -121.322351 -7.601827 0.930897 7.089662 -11.926380 -9.793494 -52.017254 -3.931333 -1.786941 10.328196 1.113252 3.399685 -7.908362 0.371400 0.000000 -38.591200 11.401438 -5.319634 2.529220 7.437320 -2.732217 -1.977613 1.287657 -0.580291 3.020505 -0.121924 7.356412 34.977891 4.878300 0.000000 -60.051000 -7.893365 -0.428218 -10.310361 -1.975644 -0.024039 -4.959578 -2.338816 -0.228943 0.210262 4.034119 -4.916669 -9.535430 -0.917026 -0.030032 -0.655446 0.000000 0.000000 0.000000 5.888601 10.456028 2.563919 10.316412 -24.113445 -49.949746 -0.129835 -66.111209 -0.215348 20.562953 -11.969112 -2.390227 -0.423854 0.887633 -0.000000 0.000000 0.000000 0.000000 0.000000 0.000000 0.000000 0.882301 0.944201 3.977429 7.631292 41.542507 12.624023 0.350230 62.714357 -0.040421 -9.229086 17.350374 -1.480484 0.145969 -0.564789 -0.000000 0.000000 0.000000 0.000000 0.000000 0.000000 0.000000 
-4.348042 17.172254 1.074662 153.953494 -83.947351 -124.040625 -7.645431 0.907696 7.043637 -12.075083 -9.663014 -52.621833 -3.948819 -1.656901 10.982767 1.019497 3.038452 -7.559966 0.394201 -0.000000 -39.290899 11.400125 -5.418692 2.399925 7.047599 -3.219177 -0.964073 1.246913 -0.648438 3.436033 -0.144085 8.412793 35.716399 5.677400 -0.000001 -59.336200 -8.247025 -0.453817 -10.175953 -1.951274 -0.011291 -4.910429 -1.993244 -0.228709 0.293241 4.099236 -5.251086 -9.616942 -0.717278 -0.012604 -0.676753 0.000000 0.000000 0.000000 5.798182 10.390661 2.666496 10.237964 -23.641301 -52.477472 -0.073631 -60.707122 -0.221160 21.092211 -11.431609 -2.348864 -0.441873 0.879533 -0.000000 0.000000 0.000000 0.000000 0.000000 0.000000 0.000000 0.378483 0.526749 4.010805 5.014854 43.263843 14.716885 0.268997 64.321794 -0.037585 -8.432242 17.790246 -1.384985 0.127433 -0.564502 -0.000000 0.000000 0.000000 0.000000 0.000000 0.000000 0.000000 
-4.640367 17.081556 1.046504 155.615068 -83.590081 -126.058668 -7.674486 0.911752 6.998253 -12.149108 -9.709243 -53.379316 -3.887963 -1.405797 12.613532 0.972319 2.845577 -7.364214 0.405200 -0.000000 -39.710100 11.432994 -5.510273 2.295630 6.576364 -3.684137 -0.082555 1.185407 -0.722463 4.096551 -0.172222 9.472059 36.319491 6.480700 0.000000 -58.518900 -8.616821 -0.507549 -10.080967 -1.928676 -0.022309 -4.870096 -1.657525 -0.251086 0.363155 4.183463 -5.601644 -9.654235 -0.521855 0.003686 -0.683424 0.000000 0.000000 0.000000 5.791329 10.249173 2.742563 10.153722 -23.203007 -55.106795 0.022447 -55.117658 -0.229283 21.760357 -10.713719 -2.282014 -0.467385 0.871373 0.000000 0.000000 0.000000 0.000000 0.000000 0.000000 0.000000 -0.085128 0.069718 4.014435 2.398396 45.026256 16.373021 0.184196 65.901181 -0.035622 -7.579788 18.092710 -1.264100 0.106029 -0.563169 -0.000000 0.000000 0.000000 0.000000 0.000000 0.000000 0.000000 
-4.932636 16.983197 1.018573 156.761229 -83.239994 -127.575544 -7.699813 0.929161 6.935904 -12.183947 -9.866733 -54.271378 -3.748507 -1.041193 15.210963 0.958627 2.746760 -7.360031 0.396800 -0.000001 -39.755800 11.489468 -5.597116 2.220311 6.037284 -4.107890 0.670327 1.102184 -0.801662 5.006838 -0.210481 10.455692 36.811835 7.234700 0.000000 -57.672700 -8.995242 -0.585791 -10.013446 -1.906087 -0.053337 -4.836117 -1.331436 -0.292500 0.419972 4.284088 -5.943468 -9.648368 -0.330154 0.018862 -0.675887 0.000000 0.000000 0.000000 5.848502 10.059262 2.799440 10.068883 -22.808335 -57.858234 0.168925 -49.415987 -0.239222 22.558368 -9.783581 -2.175677 -0.501328 0.860659 0.000000 0.000000 0.000000 0.000000 0.000000 0.000000 0.000000 -0.524035 -0.395293 3.984200 -0.149722 46.774660 17.557816 0.103282 67.422015 -0.033967 -6.581868 18.275366 -1.106323 0.080592 -0.560796 -0.000000 0.000000 0.000000 0.000000 0.000000 0.000000 0.000000 
